<svg width="16" height="16" viewBox="0 0 16 16" fill="none" xmlns="http://www.w3.org/2000/svg">
<path d="M9.59991 14.4C9.59991 13.5163 8.88357 12.8 7.99991 12.8C7.11625 12.8 6.3999 13.5163 6.3999 14.4C6.3999 15.2837 7.11625 16 7.99991 16C8.88357 16 9.59991 15.2837 9.59991 14.4Z" fill="white"/>
<path d="M9.59991 8.00003C9.59991 7.11637 8.88357 6.40002 7.99991 6.40002C7.11625 6.40002 6.3999 7.11637 6.3999 8.00003C6.3999 8.88369 7.11625 9.60004 7.99991 9.60004C8.88357 9.60004 9.59991 8.88369 9.59991 8.00003Z" fill="white"/>
<path d="M9.59991 1.6C9.59991 0.71634 8.88357 -8.58307e-06 7.99991 -8.58307e-06C7.11625 -8.58307e-06 6.3999 0.71634 6.3999 1.6C6.3999 2.48366 7.11625 3.20001 7.99991 3.20001C8.88357 3.20001 9.59991 2.48366 9.59991 1.6Z" fill="white"/>
</svg>
