<svg width="48" height="48" viewBox="0 0 48 48" fill="none" xmlns="http://www.w3.org/2000/svg">
<path d="M40.9782 7.02215C31.6138 -2.34027 16.3847 -2.34027 7.02027 7.02215C-2.34009 16.3846 -2.34009 31.6176 7.02027 40.9801C11.7025 45.6603 17.8513 47.9993 24.0003 47.9993C30.1492 47.9993 36.296 45.6602 40.9782 40.9801C50.3406 31.6177 50.3406 16.3846 40.9782 7.02215ZM33.9028 31.0754C34.6852 31.8578 34.6852 33.1224 33.9028 33.9047C33.5126 34.2949 33.0004 34.491 32.4881 34.491C31.9759 34.491 31.4636 34.2949 31.0734 33.9047L24.0002 26.8294L16.9288 33.9027C16.5367 34.2928 16.0244 34.489 15.5142 34.489C15.0019 34.489 14.4896 34.2928 14.0995 33.9027C13.3171 33.1203 13.3171 31.8537 14.0995 31.0734L21.1708 24.0001L14.0975 16.9268C13.3152 16.1445 13.3152 14.8779 14.0975 14.0975C14.8779 13.3152 16.1444 13.3152 16.9268 14.0975L24.0001 21.1708L31.0734 14.0975C31.8557 13.3152 33.1203 13.3152 33.9026 14.0975C34.685 14.8779 34.685 16.1445 33.9026 16.9268L26.8294 24.0001L33.9028 31.0754Z" fill="white"/>
</svg>
