<svg width="20" height="20" viewBox="0 0 20 20" fill="none" xmlns="http://www.w3.org/2000/svg">
<path d="M19.9479 7.67191C19.8169 7.26693 19.4577 6.97929 19.0328 6.94099L13.2602 6.41684L10.9776 1.07414C10.8093 0.682593 10.426 0.429138 10.0001 0.429138C9.57422 0.429138 9.19091 0.682593 9.0226 1.07506L6.73998 6.41684L0.966514 6.94099C0.542309 6.98021 0.184023 7.26693 0.0523365 7.67191C-0.0793503 8.07689 0.0422654 8.52108 0.363166 8.80109L4.72653 12.6278L3.43987 18.2955C3.34573 18.7122 3.50747 19.143 3.85325 19.3929C4.0391 19.5272 4.25655 19.5956 4.47582 19.5956C4.66488 19.5956 4.85242 19.5446 5.02073 19.4439L10.0001 16.4679L14.9776 19.4439C15.3419 19.663 15.801 19.643 16.146 19.3929C16.492 19.1422 16.6536 18.7113 16.5594 18.2955L15.2728 12.6278L19.6361 8.80185C19.957 8.52108 20.0796 8.07765 19.9479 7.67191Z" fill="#FFC107"/>
</svg>
