<svg width="20" height="20" viewBox="0 0 20 20" fill="none" xmlns="http://www.w3.org/2000/svg">
<g clip-path="url(#clip0)">
<path d="M19.825 8.22501L15.3583 12.8L16.4083 19.275C16.5008 19.7917 15.94 20.17 15.4917 19.925L10 16.8833V0.0250244C10.2333 0.0250244 10.4667 0.133358 10.5667 0.358357L13.325 6.23335L19.4667 7.16668C19.98 7.25835 20.1692 7.86251 19.825 8.22501Z" fill="#ECEFF1"/>
<path d="M10 0.0250244V16.8834L4.50838 19.925C4.06755 20.1725 3.49838 19.7975 3.59171 19.275L4.64171 12.8L0.175048 8.22502C-0.169119 7.86252 0.0192144 7.25836 0.533381 7.16669L6.67505 6.23336L9.43338 0.358358C9.53338 0.133358 9.76672 0.0250244 10 0.0250244Z" fill="#FFC107"/>
</g>
<defs>
<clipPath id="clip0">
<rect width="20" height="20" fill="white"/>
</clipPath>
</defs>
</svg>
