<svg width="70" height="70" viewBox="0 0 70 70" fill="none" xmlns="http://www.w3.org/2000/svg">
<rect width="70" height="70" rx="20" fill="#274EC9"/>
<g clip-path="url(#clip0)">
<path d="M50.4629 33.5669L45.6131 28.7172V23.1149C45.6131 22.1019 44.7922 21.281 43.7778 21.281C42.7656 21.281 41.9448 22.1019 41.9448 23.1149V25.0489L38.3338 21.4378C36.5484 19.6534 33.4443 19.6566 31.6631 21.441L19.5369 33.5669C18.821 34.2842 18.821 35.4448 19.5369 36.1609C20.253 36.878 21.4159 36.878 22.1318 36.1609L34.2568 24.0347C34.6518 23.6417 35.348 23.6417 35.7409 24.0335L47.868 36.1609C48.2276 36.5195 48.6965 36.6978 49.1652 36.6978C49.6348 36.6978 50.1044 36.5193 50.4629 36.1609C51.179 35.4448 51.179 34.2843 50.4629 33.5669Z" fill="white"/>
<path d="M35.6372 27.5158C35.2849 27.1637 34.7145 27.1637 34.3632 27.5158L23.697 38.1789C23.5286 38.3472 23.4331 38.577 23.4331 38.8169V46.5941C23.4331 48.4191 24.9128 49.8988 26.7378 49.8988H32.0186V41.7205H37.9806V49.8988H43.2616C45.0864 49.8988 46.5662 48.4191 46.5662 46.5942V38.8169C46.5662 38.577 46.4715 38.3472 46.3023 38.1789L35.6372 27.5158Z" fill="white"/>
</g>
<defs>
<clipPath id="clip0">
<rect width="32" height="32" fill="white" transform="translate(19 19)"/>
</clipPath>
</defs>
</svg>
