<svg width="289" height="42" viewBox="0 0 289 42" fill="none" xmlns="http://www.w3.org/2000/svg">
<path fill-rule="evenodd" clip-rule="evenodd" d="M0 2.21053L12.1019 7.73684C24.0231 13.2632 48.2269 24.3158 72.25 21C96.2731 17.6842 120.477 0 144.5 0C168.523 0 192.727 17.6842 216.75 27.6316C240.773 37.5789 264.977 39.7895 276.898 40.8947L289 42H276.898C264.977 42 240.773 42 216.75 42C192.727 42 168.523 42 144.5 42C120.477 42 96.2731 42 72.25 42C48.2269 42 24.0231 42 12.1019 42H0L0 2.21053Z" fill="#BAB1FA"/>
</svg>
