<svg width="84" height="84" viewBox="0 0 84 84" fill="none" xmlns="http://www.w3.org/2000/svg">
<g filter="url(#filter0_b)">
<rect width="84" height="84" rx="10" fill="#EAF0FF"/>
<path d="M39.4798 28.14C37.5923 28.14 35.846 28.7322 34.4096 29.7402C34.3163 28.2962 33.9862 27.0438 33.3789 25.935C35.2972 24.8734 37.4593 24.3307 39.6515 24.3606C41.8437 24.3905 43.9902 24.9918 45.8788 26.1053C47.7675 27.2187 49.3329 28.8057 50.4204 30.7094C51.508 32.613 52.0799 34.7675 52.0798 36.96H57.7524C60.1867 36.9574 62.1624 38.9331 62.1624 41.3674V55.2275C62.1627 55.807 62.0488 56.3809 61.8271 56.9164C61.6055 57.4519 61.2805 57.9385 60.8707 58.3483C60.4609 58.7581 59.9743 59.0831 59.4388 59.3048C58.9033 59.5264 58.3294 59.6403 57.7498 59.64H43.8898C42.7202 59.64 41.5985 59.1753 40.7715 58.3483C39.9445 57.5213 39.4798 56.3996 39.4798 55.23V49.56C37.7269 49.5622 35.9929 49.1974 34.3894 48.489C34.4222 47.6322 34.4398 46.7325 34.4398 45.78V45.6237C34.4398 45.2029 34.4398 44.719 34.4323 44.1949C35.8636 45.1928 37.6024 45.78 39.4798 45.78V41.37C39.4798 38.9356 41.4555 36.96 43.8898 36.96H48.2998C48.2998 34.6208 47.3706 32.3774 45.7165 30.7233C44.0624 29.0692 41.819 28.14 39.4798 28.14ZM51.5028 40.74C50.892 42.675 49.824 44.4345 48.3891 45.8693C46.9543 47.3041 45.1949 48.3721 43.2598 48.9829V55.23C43.2598 55.5777 43.5421 55.86 43.8898 55.86H57.7498C57.9169 55.86 58.0772 55.7936 58.1953 55.6754C58.3135 55.5573 58.3798 55.3971 58.3798 55.23V41.37C58.3798 41.2029 58.3135 41.0426 58.1953 40.9245C58.0772 40.8063 57.9169 40.74 57.7498 40.74H51.5028ZM47.4506 40.74H43.8898C43.7227 40.74 43.5625 40.8063 43.4444 40.9245C43.3262 41.0426 43.2598 41.2029 43.2598 41.37V44.9307C45.0965 44.0564 46.5763 42.5766 47.4506 40.74Z" fill="#4264D0"/>
<path d="M28.3414 22.155C28.551 22.3376 28.6943 22.5844 28.749 22.857C28.8037 23.1296 28.7667 23.4126 28.6438 23.6619C28.6225 23.7356 28.6115 23.812 28.6111 23.8887C28.6111 24.0475 28.6514 24.3499 29.0319 24.7279C29.2159 24.9118 29.357 25.0429 29.5107 25.1865C29.6367 25.3024 29.7703 25.4234 29.9391 25.5897C30.2667 25.9022 30.612 26.2701 30.9219 26.7313C31.5645 27.6964 31.9198 28.9035 31.9198 30.66C31.9198 32.8095 31.1235 34.6416 29.8812 35.7655L30.0424 35.952C30.748 36.8188 31.1588 37.9428 31.4158 39.0516C31.9198 41.244 31.9198 43.8799 31.9198 45.717V45.78C31.9198 52.8032 30.9648 56.7873 29.9139 59.0654C29.3847 60.212 28.8228 60.9428 28.3364 61.4014C28.1387 61.5911 27.9206 61.7585 27.6862 61.9004C27.5789 61.965 27.4669 62.0215 27.3511 62.0692C27.3511 62.0692 27.0663 62.16 26.8798 62.16C26.6934 62.16 26.4086 62.0692 26.4086 62.0692C26.2915 62.0243 26.1793 61.9677 26.0734 61.9004C25.8391 61.7585 25.621 61.5911 25.4233 61.4014C24.9369 60.9403 24.375 60.212 23.8458 59.0654C22.7949 56.7873 21.8398 52.8032 21.8398 45.78V45.717C21.8398 43.8774 21.8398 41.244 22.3438 39.0516C22.6009 37.9428 23.0116 36.8188 23.7172 35.952C23.7676 35.889 23.8231 35.826 23.8785 35.7655C22.6362 34.6416 21.8398 32.8095 21.8398 30.66C21.8398 29.8384 22.0591 28.8582 22.3615 27.9535C22.6639 27.0463 23.0872 26.1088 23.5761 25.3528C24.1582 24.37 24.9772 23.546 25.6123 22.9916C25.9604 22.6854 26.3238 22.3969 26.7009 22.1272L26.8118 22.0516C27.0429 21.8976 27.3184 21.8242 27.5954 21.8429C27.8725 21.8616 28.1357 21.9713 28.344 22.155H28.3414Z" fill="#4264D0"/>
</g>
<defs>
<filter id="filter0_b" x="-45" y="-45" width="174" height="174" filterUnits="userSpaceOnUse" color-interpolation-filters="sRGB">
<feFlood flood-opacity="0" result="BackgroundImageFix"/>
<feGaussianBlur in="BackgroundImage" stdDeviation="22.5"/>
<feComposite in2="SourceAlpha" operator="in" result="effect1_backgroundBlur"/>
<feBlend mode="normal" in="SourceGraphic" in2="effect1_backgroundBlur" result="shape"/>
</filter>
</defs>
</svg>
