<svg width="84" height="84" viewBox="0 0 84 84" fill="none" xmlns="http://www.w3.org/2000/svg">
<rect width="84" height="84" rx="10" fill="#EAF0FF"/>
<g clip-path="url(#clip0)">
<path d="M32.2244 28.6653C32.2244 26.4403 33.2544 24.3064 35.0877 22.7331C36.921 21.1597 39.4076 20.2759 42.0003 20.2759C44.593 20.2759 47.0795 21.1597 48.9129 22.7331C50.7462 24.3064 51.7762 26.4403 51.7762 28.6653C51.7762 30.8903 50.7462 33.0242 48.9129 34.5975C47.0795 36.1708 44.593 37.0547 42.0003 37.0547C39.4076 37.0547 36.921 36.1708 35.0877 34.5975C33.2544 33.0242 32.2244 30.8903 32.2244 28.6653ZM55.038 39.8511H53.236L43.0985 57.5136L46.8882 41.2494L42.0003 37.0547L37.1124 41.2494L40.9021 57.5136L30.7646 39.8511H28.9593C22.4453 39.8511 22.4453 43.6096 22.4453 48.2405V62.2229H61.5488V48.2405C61.5488 43.6096 61.5488 39.8511 55.0348 39.8511H55.038Z" fill="#4264D0"/>
</g>
<defs>
<clipPath id="clip0">
<rect width="52.1379" height="44.7435" fill="white" transform="translate(15.9312 20.2759)"/>
</clipPath>
</defs>
</svg>
