<svg width="302" height="39" viewBox="0 0 302 39" fill="none" xmlns="http://www.w3.org/2000/svg">
<path fill-rule="evenodd" clip-rule="evenodd" d="M0 4.29151L12.5833 8.6583C25.1667 12.9498 50.3333 21.6834 75.5 20.1776C100.667 18.7471 125.833 7.2278 151 2.861C176.167 -1.50579 201.333 1.4305 226.5 2.10811C251.667 2.861 276.833 1.4305 289.417 0.677606L302 0V39H289.417C276.833 39 251.667 39 226.5 39C201.333 39 176.167 39 151 39C125.833 39 100.667 39 75.5 39C50.3333 39 25.1667 39 12.5833 39H0V4.29151Z" fill="#FFFCA8"/>
</svg>
